PathFileType	4	(X/Y/Z)	s08c0102.trc
DataRate	CameraRate	NumFrames	NumMarkers	Units	OrigDataRate	OrigDataStartFrame	OrigNumFrames
200	200	4	50	mm	200	1500	2000
Frame#	Time	racr			lacr			c7			jug			rlel			rdr			llel			ldr			s2			lic			ric			lasi			rasi			rpsi			lpsi			rgt			lgt			rth1			rth2			rth3			rth4			rlfc			rmfc			rsh1			rsh2			rsh3			rsh4			rlmal			rmmal			rcal			rtoe			rmt5			lth1			lth2			lth4			lth3			llfc			lmfc			llmal			lmmal			lcal			lmt5			lsh1			lsh2			lsh3			lsh4			ltoe			SBIKE			LBIKE			RBIKE			
		X1	Y1	Z1	X2	Y2	Z2	X3	Y3	Z3	X4	Y4	Z4	X5	Y5	Z5	X6	Y6	Z6	X7	Y7	Z7	X8	Y8	Z8	X9	Y9	Z9	X10	Y10	Z10	X11	Y11	Z11	X12	Y12	Z12	X13	Y13	Z13	X14	Y14	Z14	X15	Y15	Z15	X16	Y16	Z16	X17	Y17	Z17	X18	Y18	Z18	X19	Y19	Z19	X20	Y20	Z20	X21	Y21	Z21	X22	Y22	Z22	X23	Y23	Z23	X24	Y24	Z24	X25	Y25	Z25	X26	Y26	Z26	X27	Y27	Z27	X28	Y28	Z28	X29	Y29	Z29	X30	Y30	Z30	X31	Y31	Z31	X32	Y32	Z32	X33	Y33	Z33	X34	Y34	Z34	X35	Y35	Z35	X36	Y36	Z36	X37	Y37	Z37	X38	Y38	Z38	X39	Y39	Z39	X40	Y40	Z40	X41	Y41	Z41	X42	Y42	Z42	X43	Y43	Z43	X44	Y44	Z44	X45	Y45	Z45	X46	Y46	Z46	X47	Y47	Z47	X48	Y48	Z48	X49	Y49	Z49	X50	Y50	Z50	
1500	7.5000	569.598022	1325.529703	-114.476588	544.406145	1371.182383	-407.873721	525.295656	1412.542459	-254.144830	497.661823	1256.840832	-275.087518	599.530163	1092.388868	19.462713	799.694029	888.709070	-58.446518	575.091873	1102.883559	-498.615100	795.032622	917.544027	-432.661507	-40.670080	1217.738023	-212.581071	104.480158	1229.149473	-368.265521	134.023012	1207.058250	-58.951246	137.872181	1190.093943	-329.235827	150.322838	1150.956783	-92.924771	-4.191351	1253.316680	-155.407024	-13.197477	1268.516933	-247.574904	46.934360	1087.578156	-33.263947	66.999654	1131.966345	-407.178810	161.321866	958.586486	-31.184118	232.147115	904.584998	-33.756240	265.225703	824.226722	-41.096024	259.883613	926.326890	-44.556712	323.095796	725.714794	-55.091738	304.602332	717.753865	-163.797996	229.280372	632.253902	-26.273637	204.170063	549.423965	-46.672000	139.331422	490.998502	-54.391981	229.066395	537.514879	-76.051717	66.893973	396.271624	-63.751052	89.511691	407.999532	-150.784630	-9.296346	412.624958	-112.184559	227.319975	232.284677	-104.220794	136.741649	259.380798	-39.266125	167.279095	1042.114417	-417.833567	248.241227	1009.417900	-415.743254	269.605918	1036.685784	-402.442348	302.876276	939.289308	-419.620603	387.874467	837.322255	-398.141975	394.005742	808.745710	-291.178085	304.233005	422.554781	-404.342366	328.708651	444.857093	-317.821591	237.405152	384.912708	-366.262747	451.183538	365.408673	-427.405325	365.168355	710.212445	-423.870356	367.905016	625.354146	-407.866853	330.255056	546.195444	-410.414240	390.644098	624.238750	-375.859308	526.011300	411.336234	-360.040332	-146.410415	938.975724	-227.269532	9.416400	79.792501	-426.755447	10.490160	79.759060	-28.379926	
1501	7.5050	569.910685	1323.265826	-114.015239	545.701957	1369.840781	-407.796319	526.410307	1411.003778	-253.673959	497.890235	1255.529815	-275.120957	598.863723	1090.795589	20.599248	799.632873	888.555968	-57.991339	575.228403	1101.287431	-499.183995	794.865494	916.508631	-432.039119	-39.377285	1216.125499	-212.719489	105.789537	1226.930587	-369.980068	134.830276	1205.861578	-60.466642	138.873767	1187.548862	-330.964393	151.217434	1150.408811	-94.485297	-3.290618	1252.047273	-156.803184	-12.120954	1266.554509	-248.949888	48.750193	1086.244262	-34.053214	67.193256	1127.808161	-408.291735	165.251945	960.394416	-31.335924	237.203365	907.751632	-34.154429	271.923426	828.074649	-41.116930	264.373005	930.066968	-45.733502	330.778620	730.911161	-55.107673	310.093259	723.368481	-166.128107	234.633926	639.452196	-26.303864	207.531127	557.046602	-46.564707	141.577911	500.152692	-54.255518	232.514495	544.635082	-75.626867	67.148638	407.275665	-63.556210	89.717953	418.664101	-150.630298	-8.782237	425.066493	-111.963871	224.530588	240.629461	-104.276915	134.495648	269.225553	-39.254601	166.696325	1035.702146	-418.776121	246.919589	1001.698769	-416.736259	268.841459	1028.813698	-404.121837	300.311492	930.600262	-420.009725	384.636951	827.917174	-398.851021	390.191886	799.642857	-291.748033	306.713313	412.128405	-404.704671	330.359486	434.185476	-320.492757	240.114482	374.742117	-366.529503	453.968008	354.839248	-427.211434	363.370231	700.382655	-423.959981	367.707270	615.742945	-408.423718	331.110374	536.100678	-410.946040	390.037871	615.089049	-376.039461	528.961053	400.631802	-359.749428	-146.464323	938.963716	-227.215249	9.433044	79.799556	-426.749024	10.524503	79.937041	-28.202929	
1502	7.5100	570.036884	1321.283422	-113.391593	547.907228	1369.205889	-409.814964	527.357263	1409.737291	-253.334387	499.216426	1254.314891	-275.645018	598.126384	1089.413585	21.780008	799.428999	888.487537	-57.587479	575.089514	1099.992672	-499.919281	794.529293	915.762857	-431.797240	-37.627221	1214.252129	-213.665842	107.310084	1224.659578	-372.070017	135.673916	1204.977988	-62.019912	140.029685	1184.880952	-332.824545	152.257670	1149.973888	-95.997707	-2.325019	1250.846559	-158.202563	-10.819316	1264.477379	-250.720010	50.642033	1085.025199	-35.022023	67.562198	1123.343959	-409.520822	169.239879	962.359796	-31.612997	242.208467	911.213449	-34.697673	278.643843	832.337156	-41.205427	268.907025	934.177184	-46.650088	338.543902	736.302378	-55.086009	317.542447	728.090328	-166.041575	240.296413	646.880539	-26.327479	211.393289	564.921806	-46.357327	144.226515	509.456140	-54.046105	236.326275	551.835499	-75.036435	68.051063	418.377439	-63.274855	91.518945	428.625334	-150.707533	-7.637473	437.560118	-111.679017	222.391891	249.057619	-104.415137	132.926045	279.140472	-39.339472	165.979175	1029.069599	-419.747971	245.617128	993.726437	-417.714263	268.045204	1020.678575	-405.845894	297.781020	921.765799	-420.331553	381.017504	819.051518	-399.126284	386.794832	791.364286	-291.830812	308.711856	401.869138	-404.888483	333.748897	424.988041	-317.912817	242.371495	364.786323	-366.598382	456.197745	344.012999	-426.960710	361.035847	690.592761	-424.116236	366.790566	606.060956	-408.756477	331.416703	525.873286	-411.131416	389.092074	605.710136	-376.116347	531.209182	389.676066	-359.451792	-146.535814	938.988385	-227.202487	9.438140	79.776447	-426.744645	10.425205	79.758425	-28.369824	
1503	7.5150	570.087971	1319.558206	-112.605002	549.100153	1367.952254	-409.695098	528.249652	1408.784299	-253.262958	499.070675	1253.577736	-275.747949	597.412047	1088.313587	22.951270	799.206130	888.512232	-57.179181	574.880608	1098.895698	-500.722103	794.107816	914.695440	-431.501213	-36.251687	1212.693156	-215.192513	108.910844	1222.408743	-374.391524	136.565668	1204.229611	-63.624048	141.344080	1182.099447	-334.820343	153.284649	1149.729350	-97.678726	-1.244279	1249.761444	-160.012669	-9.419034	1262.482986	-252.610064	52.626630	1084.134002	-36.039187	68.037851	1118.733570	-410.768278	173.179176	963.966484	-32.322998	247.331467	914.900747	-35.145347	285.175831	836.542956	-41.317940	273.236660	938.241728	-47.955574	346.446752	742.074793	-55.641905	324.585932	732.814501	-166.470745	246.291628	654.436786	-26.206953	214.176007	572.366145	-47.401396	147.425891	518.941765	-53.879029	240.438845	559.310056	-74.753961	69.601865	429.472197	-62.949119	93.234313	439.204601	-150.333695	-5.790419	450.106686	-111.268454	220.912108	257.753755	-104.538364	131.993284	289.226022	-39.391426	165.292462	1022.333776	-420.743761	244.329291	985.633168	-418.659561	267.156188	1012.504412	-407.919941	295.033172	912.544955	-419.875692	377.459614	809.610269	-399.386899	383.064520	782.529618	-291.984588	310.174684	391.702096	-404.957790	335.210140	414.870951	-318.167414	244.083350	355.152789	-366.588535	457.900838	332.956491	-426.657516	358.559149	680.924712	-424.669600	365.460209	596.454558	-409.274043	331.395669	515.579578	-411.149686	387.856760	596.313658	-376.368014	532.953365	378.262573	-359.159462	-146.556637	938.963642	-227.204779	9.415245	79.754657	-426.741690	10.502329	79.891962	-28.196752	
